<svg width="96" height="96" viewBox="0 0 96 96" fill="none" xmlns="http://www.w3.org/2000/svg">
<path d="M84.4373 11.577C82.7657 9.90507 80.7811 8.5788 78.5969 7.67394C76.4126 6.76907 74.0715 6.30334 71.7073 6.30334C69.3431 6.30334 67.002 6.76907 64.8177 7.67394C62.6335 8.5788 60.6489 9.90507 58.9773 11.577L8.0639 62.4848C7.50649 63.0417 7.06433 63.7031 6.7627 64.431C6.46106 65.1589 6.30587 65.9392 6.306 66.7271V83.6964C6.30558 84.4845 6.46049 85.2649 6.76187 85.993C7.06325 86.7211 7.50519 87.3828 8.06242 87.94C8.61966 88.4972 9.28126 88.9392 10.0094 89.2405C10.7375 89.5419 11.518 89.6968 12.306 89.6964H29.2813C30.0692 89.6965 30.8495 89.5413 31.5774 89.2397C32.3053 88.9381 32.9667 88.4959 33.5236 87.9385L84.4436 37.0307C87.8075 33.6489 89.6954 29.0725 89.6942 24.3026C89.693 19.5326 87.8029 14.9572 84.4373 11.577V11.577ZM75.9473 20.0617C77.0697 21.1879 77.7004 22.7128 77.7014 24.3028C77.7025 25.8928 77.0739 27.4185 75.9531 28.5463L71.7101 32.7893L63.221 24.3032L67.4626 20.0617C68.0196 19.5045 68.6809 19.0624 69.4088 18.7609C70.1367 18.4593 70.9168 18.3041 71.7047 18.3041C72.4926 18.3041 73.2727 18.4593 74.0006 18.7609C74.7285 19.0624 75.3898 19.5045 75.9468 20.0617H75.9473ZM26.7973 77.6962H18.3073V69.2116L54.7352 32.7871L63.2242 41.2732L26.7973 77.6962Z" fill="#008BD2"/>
</svg>
